<svg width="155" height="50" viewBox="0 0 155 50" fill="none" xmlns="http://www.w3.org/2000/svg">
<g clip-path="url(#clip0_2530_7562)">
<path d="M32.0737 11.0519V16.953H7.2814C3.67942 16.9913 0.383998 14.3856 0.0391275 10.8219C-0.382381 6.6835 2.83641 3.2348 6.85989 3.2348H24.2184C28.5484 3.2348 32.0737 6.76014 32.0737 11.0519Z" fill="#23532D"/>
<path d="M6.85908 16.9913H32.0346V27.4907C32.0346 31.8207 28.5093 35.346 24.1792 35.346H6.85908C3.06551 35.3077 0 38.3732 0 42.1668V35.3077V16.9913V10.1322C0 13.8875 3.10383 16.6464 6.85908 16.9913Z" fill="#608E4D"/>
<path d="M45.7919 24.8083V41.2088C45.7919 45.5389 42.2666 49.0642 37.9365 49.0642H7.2814C3.67942 49.0642 0.422317 46.4968 0.0391275 42.8949C-0.382381 38.7564 2.83641 35.3077 6.85989 35.3077H24.2184C28.5484 35.3077 32.0737 31.7824 32.0737 27.4523V16.9913H37.9749C42.3049 16.9913 45.7919 20.4783 45.7919 24.8083Z" fill="#A5C07D"/>
<path d="M70.6984 41.8986H63.2262C63.5328 42.9332 64.4141 43.5463 65.7553 43.5463C66.7516 43.5463 67.4413 43.2781 68.1311 42.665L70.047 44.6576C69.0507 45.7688 67.5946 46.3436 65.6403 46.3436C61.9617 46.3436 59.5859 44.0828 59.5859 41.0173C59.5859 37.9134 62 35.7292 65.2571 35.7292C68.2843 35.7292 70.7751 37.6835 70.7751 41.0556C70.7751 41.2472 70.7367 41.592 70.6984 41.8986ZM63.1496 39.9826H67.3647C67.1731 38.9097 66.3684 38.22 65.2571 38.22C64.1459 38.22 63.3795 38.9097 63.1496 39.9826Z" fill="white"/>
<path d="M83.2286 32.0123V46.1137H79.7799V45.0791C79.0901 45.8838 78.0938 46.267 76.7527 46.267C73.9554 46.267 71.6562 44.1977 71.6562 40.9406C71.6562 37.6835 73.9171 35.6526 76.7527 35.6526C77.9406 35.6526 78.9368 35.9975 79.5883 36.7256V32.0123H83.2286ZM79.6649 40.9406C79.6649 39.3696 78.7452 38.4882 77.519 38.4882C76.2928 38.4882 75.3349 39.3696 75.3349 40.9406C75.3349 42.5117 76.2545 43.4314 77.519 43.4314C78.7069 43.4314 79.6649 42.5117 79.6649 40.9406Z" fill="white"/>
<path d="M96.295 32.0123V46.1137H92.8463V45.0791C92.1565 45.8838 91.1602 46.267 89.8191 46.267C87.0218 46.267 84.7227 44.1977 84.7227 40.9406C84.7227 37.6835 86.9835 35.6526 89.8191 35.6526C91.007 35.6526 92.0032 35.9975 92.6547 36.7256V32.0123H96.295ZM92.7313 40.9406C92.7313 39.3696 91.8116 38.4882 90.5854 38.4882C89.3592 38.4882 88.4013 39.3696 88.4013 40.9406C88.4013 42.5117 89.3209 43.4314 90.5854 43.4314C91.8116 43.4314 92.7313 42.5117 92.7313 40.9406Z" fill="white"/>
<path d="M108.903 41.8986H101.392C101.699 42.9332 102.58 43.5463 103.921 43.5463C104.918 43.5463 105.607 43.2781 106.297 42.665L108.213 44.6576C107.217 45.7688 105.761 46.3436 103.806 46.3436C100.128 46.3436 97.752 44.0828 97.752 41.0173C97.752 37.9134 100.166 35.7292 103.423 35.7292C106.45 35.7292 108.941 37.6835 108.941 41.0556C108.979 41.2472 108.941 41.592 108.903 41.8986ZM101.354 39.9826H105.569C105.377 38.9097 104.573 38.22 103.461 38.22C102.35 38.22 101.546 38.9097 101.354 39.9826Z" fill="white"/>
<path d="M115.11 42.5117L114.038 43.5846V46.1137H110.436V32.0123H114.038V39.4079L117.716 35.8059H122.008L117.716 40.2126L122.353 46.1137H118.023L115.11 42.5117Z" fill="white"/>
<path d="M134.27 40.2126V46.1137H130.668V40.8257C130.668 39.3312 130.016 38.7181 128.982 38.7181C127.832 38.7181 126.913 39.4462 126.913 41.1705V46.152H123.311V32.0123H126.913V36.7639C127.717 36.0358 128.79 35.6526 130.016 35.6526C132.43 35.6526 134.27 37.0321 134.27 40.2126Z" fill="white"/>
<path d="M145.995 40.4042V46.1137H142.623V44.7725C142.125 45.7688 141.09 46.267 139.596 46.267C137.105 46.267 135.764 44.8875 135.764 43.0865C135.764 41.1706 137.143 40.021 140.362 40.021H142.431C142.393 38.9864 141.665 38.3733 140.247 38.3733C139.251 38.3733 138.139 38.7182 137.45 39.2546L136.224 36.8022C137.411 36.0358 139.136 35.6143 140.783 35.6143C144.079 35.6526 145.995 37.1088 145.995 40.4042ZM142.393 42.8183V41.9369H140.822C139.672 41.9369 139.251 42.3584 139.251 42.9715C139.251 43.5847 139.749 44.0062 140.592 44.0062C141.397 44.0062 142.125 43.623 142.393 42.8183Z" fill="white"/>
<path d="M155.001 35.6526V38.9098C154.694 38.8714 154.464 38.8714 154.196 38.8714C152.74 38.8714 151.705 39.5995 151.705 41.4388V46.1904H148.104V35.8059H151.552V37.0321C152.28 36.1125 153.468 35.6526 155.001 35.6526Z" fill="white"/>
<path d="M59.8926 25.9579C60.7739 25.9579 61.4637 25.843 61.9235 25.6897C62.4216 25.5364 62.7665 25.2682 62.9581 24.9233C63.1497 24.5784 63.2646 24.1186 63.2646 23.6205V9.90228H66.9049V23.5821C66.9049 24.9233 66.6367 26.0729 66.1002 27.0692C65.5638 28.0654 64.7974 28.8318 63.8011 29.4066C62.8048 29.9814 61.2337 30.2879 59.8926 30.3263V25.9579Z" fill="white"/>
<path d="M151.359 23.0457V5.49561H155V23.0457H151.359Z" fill="white"/>
<path d="M146.341 16.2633C145.459 14.2324 144.195 12.5463 142.585 11.1668C140.976 9.78737 139.06 8.86771 136.838 8.36957L135.995 12.623C137.642 13.0445 139.137 13.6576 140.21 14.6539C142.892 17.1063 142.892 19.2905 142.892 19.4054H135.113V23.0457H143.773H146.379H147.72C147.72 20.555 147.26 18.2558 146.341 16.2633Z" fill="white"/>
<path d="M130.822 12.9295C130.362 11.9715 129.749 11.1668 128.944 10.5154C128.139 9.86396 127.258 9.36582 126.224 8.98263C125.189 8.63776 124.116 8.44616 122.966 8.44616C121.97 8.44616 120.974 8.59944 119.978 8.86767C118.981 9.1359 118.062 9.55741 117.219 10.0939L118.905 13.8874C119.441 13.6575 120.054 13.4276 120.782 13.2743C121.51 13.1211 122.238 13.0444 122.928 13.0444C123.886 13.0444 124.729 13.1977 125.419 13.4659C126.109 13.7342 126.607 14.1174 126.99 14.5772C127.335 15.037 127.526 15.5735 127.526 16.2249V19.4437H74.1481V5.49561H70.5078V23.0457H73.9948H74.1481H76.9837H82.5783H88.1728H93.7674H99.3619H104.995H110.589H116.184H131.473V20.5549V16.1866C131.473 14.9987 131.243 13.8874 130.822 12.9295Z" fill="white"/>
<path d="M122.968 5.49563C123.619 5.49563 124.194 5.26572 124.616 4.84421C125.037 4.4227 125.229 3.88624 125.229 3.23482C125.229 2.58339 125.037 2.00861 124.616 1.5871C124.194 1.16559 123.658 0.973999 122.968 0.973999C122.316 0.973999 121.78 1.16559 121.358 1.5871C120.937 2.00861 120.707 2.58339 120.707 3.23482C120.707 3.88624 120.937 4.4227 121.358 4.84421C121.78 5.26572 122.316 5.49563 122.968 5.49563Z" fill="white"/>
<path d="M39.0859 36.8022V31.974C39.0859 31.5525 39.4308 31.1693 39.8906 31.1693H48.704V36.9555C48.704 37.3003 48.3974 37.6069 48.0526 37.6069H39.8523C39.4308 37.6069 39.0859 37.2237 39.0859 36.8022Z" fill="#23532D"/>
<path d="M48.6649 31.1693C48.6649 31.1693 48.2051 28.9085 45.791 29.215V31.1693H48.6649Z" fill="#608E4D"/>
</g>
<defs>
<clipPath id="clip0_2530_7562">
<rect width="155" height="48.0519" fill="white" transform="translate(0 0.973999)"/>
</clipPath>
</defs>
</svg>
